<?xml version="1.0" standalone="no"?>
<!DOCTYPE svg PUBLIC "-//W3C//DTD SVG 20010904//EN"
 "http://www.w3.org/TR/2001/REC-SVG-20010904/DTD/svg10.dtd">
<svg version="1.0" xmlns="http://www.w3.org/2000/svg"
 width="300.000000pt" height="300.000000pt" viewBox="0 0 300.000000 300.000000"
 preserveAspectRatio="xMidYMid meet">
<metadata>
Created by potrace 1.11, written by Peter Selinger 2001-2013
</metadata>
<g transform="translate(0.000000,300.000000) scale(0.100000,-0.100000)"
fill="#000000" stroke="none">
<path d="M290 2990 c0 -6 -7 -10 -15 -10 -8 0 -15 -6 -15 -13 0 -8 -11 -19
-25 -25 -14 -6 -25 -19 -25 -29 0 -25 -100 -113 -129 -113 -21 0 -23 -3 -18
-29 5 -25 3 -30 -19 -35 -13 -4 -29 -17 -34 -31 -10 -27 -14 -575 -4 -575 4 0
21 8 38 19 17 10 51 21 75 25 24 4 50 14 58 24 12 16 13 15 19 -5 10 -36 57
-31 97 11 18 18 43 36 55 40 16 5 22 15 22 35 0 16 7 34 15 41 8 7 15 21 15
31 0 10 13 25 29 34 34 17 45 44 37 88 -7 42 15 72 46 64 37 -10 106 13 132
44 14 16 34 29 46 29 30 0 78 30 83 52 4 13 15 18 44 18 21 0 46 7 56 15 21
15 59 80 51 87 -2 3 5 13 16 23 11 10 20 22 20 27 0 5 11 34 25 64 24 53 25
56 8 79 l-18 25 -342 -1 c-210 0 -343 -4 -343 -9z"/>
<path d="M2580 2620 c-24 -6 -25 -9 -22 -71 2 -35 9 -70 15 -78 8 -9 12 -61
12 -145 0 -106 -6 -157 -28 -266 -40 -187 -83 -261 -176 -303 -52 -24 -176
-29 -312 -13 -75 9 -127 -2 -114 -24 3 -5 -20 -32 -50 -61 -67 -63 -96 -118
-125 -235 -19 -76 -21 -95 -11 -137 6 -27 11 -61 11 -76 0 -14 16 -73 35 -130
19 -56 35 -109 35 -117 0 -8 11 -36 25 -63 23 -43 45 -63 84 -73 34 -9 -24
-37 -114 -54 -76 -14 -106 -16 -146 -7 l-51 10 5 -26 c14 -68 21 -88 39 -111
28 -35 57 -49 103 -49 53 -1 182 33 204 53 31 28 94 165 88 192 -2 14 2 39 10
56 20 39 13 93 -33 245 -30 97 -37 139 -41 233 -3 73 -1 126 6 144 12 29 12
29 74 21 34 -4 116 -9 182 -11 l120 -3 80 41 c106 54 135 75 135 101 1 13 13
30 31 42 55 36 116 190 130 330 23 229 29 367 19 406 -9 34 -56 95 -129 170
-10 11 -65 16 -91 9z"/>
<path d="M2890 2043 c-33 -12 -40 -24 -27 -44 10 -16 9 -25 -5 -50 -12 -19
-18 -52 -18 -88 0 -66 -30 -163 -84 -270 -24 -49 -34 -80 -30 -96 4 -18 -3
-32 -38 -67 -75 -74 -122 -156 -140 -241 -9 -44 -19 -253 -18 -376 1 -42 -28
-98 -90 -176 -64 -80 -146 -239 -154 -295 -4 -36 -2 -50 13 -68 11 -12 23 -22
28 -21 14 3 43 -13 43 -23 0 -6 -11 -7 -26 -4 -22 6 -24 4 -15 -11 5 -10 19
-27 30 -37 20 -19 22 -19 41 -1 11 10 32 56 46 102 25 79 68 154 191 333 77
112 85 146 82 375 -3 225 2 257 56 332 78 107 105 153 105 179 0 15 10 38 21
51 18 18 20 25 9 38 -10 12 -7 21 18 49 47 53 73 157 70 273 -3 89 -5 97 -28
114 -30 21 -60 29 -80 22z"/>
<path d="M84 1921 c-18 -11 -43 -35 -58 -54 l-26 -34 0 -259 0 -258 40 -81
c23 -44 51 -98 63 -120 12 -22 37 -78 56 -125 83 -208 177 -303 259 -261 26
13 63 28 103 42 l35 12 -78 77 c-70 71 -84 92 -153 232 -42 84 -98 194 -124
245 -56 105 -91 224 -91 306 0 82 60 197 119 227 l24 12 -23 18 c-22 16 -85
40 -106 40 -5 0 -23 -9 -40 -19z"/>
<path d="M821 1731 c-10 -10 -22 -34 -26 -52 -4 -19 -12 -37 -18 -40 -6 -4 -4
-16 7 -30 9 -13 16 -30 16 -38 0 -17 41 -56 81 -77 48 -25 177 -54 238 -54 87
0 208 34 333 93 126 60 145 80 135 144 -9 55 -37 72 -101 62 -28 -5 -80 -17
-116 -28 -188 -55 -270 -55 -396 2 -92 42 -125 46 -153 18z"/>
<path d="M1912 444 c-29 -7 -62 -19 -74 -25 -71 -38 -136 -51 -283 -55 -82 -2
-176 -10 -208 -18 -57 -13 -57 -13 -77 13 l-19 26 -1 -28 c0 -15 -5 -36 -12
-46 -10 -16 -5 -33 31 -104 37 -73 51 -91 100 -125 31 -22 73 -45 94 -53 20
-7 37 -17 37 -21 0 -4 338 -8 750 -8 504 0 750 3 750 10 0 7 -193 8 -597 4
-374 -4 -594 -2 -588 3 6 6 57 22 116 37 58 15 134 42 170 59 61 30 64 34 62
66 -1 21 -11 43 -26 59 l-25 25 -79 -21 c-140 -37 -422 -84 -464 -77 -70 12
-51 23 48 29 140 9 206 23 303 63 47 19 114 43 150 52 54 14 66 21 68 40 4 27
-34 86 -66 100 -31 15 -96 13 -160 -5z"/>
</g>
</svg>
